<svg xmlns="http://www.w3.org/2000/svg" width="218.921" height="23.638" viewBox="0 0 218.921 23.638">
    <defs>
        <clipPath id="clip-path">
            <path id="Retângulo_50" data-name="Retângulo 50" style="fill:none" d="M0 0h218.921v23.638H0z"/>
        </clipPath>
        <style>
            .cls-3{fill:#1251ff}
        </style>
    </defs>
    <g id="Grupo_35" data-name="Grupo 35" style="clip-path:url(#clip-path)">
        <path id="Caminho_180" data-name="Caminho 180" class="cls-3" d="M214.536 26.862v3.245h-3.5V27.26a1.955 1.955 0 0 0-.669-1.636 2.655 2.655 0 0 0-1.693-.527 4.079 4.079 0 0 0-1.352.213 4.616 4.616 0 0 0-1.039.5v4.3h-3.5v-4.529a2.037 2.037 0 0 1 .285-1.124 2.815 2.815 0 0 1 .854-.811 7.582 7.582 0 0 1 2.178-.968 9.754 9.754 0 0 1 2.69-.37 7.409 7.409 0 0 1 2.562.427 4.657 4.657 0 0 1 1.907 1.252c.132.114.256.228.37.341a1.532 1.532 0 0 1 .285.4 4.964 4.964 0 0 1 .441.982 3.624 3.624 0 0 1 .185 1.153m-11.759 1.877h3.5v7.372a3.746 3.746 0 0 1-.655.157 5.774 5.774 0 0 1-.94.071 2.377 2.377 0 0 1-1.437-.356 1.5 1.5 0 0 1-.469-1.266zm8.254 0h3.5v7.372a3.735 3.735 0 0 1-.669.157 5.846 5.846 0 0 1-.925.071 2.366 2.366 0 0 1-1.452-.356 1.52 1.52 0 0 1-.456-1.266zm11.727-1.594v2.96h-3.5V27.26a2.021 2.021 0 0 0-.626-1.636 2.526 2.526 0 0 0-1.679-.527 3.737 3.737 0 0 0-1.494.313 3.935 3.935 0 0 0-1.238.825l-1.767-2.135a8.621 8.621 0 0 1 2.078-1.266 7.024 7.024 0 0 1 2.846-.527 7.379 7.379 0 0 1 2.732.484 4.041 4.041 0 0 1 1.935 1.565 4.991 4.991 0 0 1 .712 2.789m-3.5 1.594h3.5v7.372a2.988 2.988 0 0 1-.64.157 5.843 5.843 0 0 1-.925.071 2.435 2.435 0 0 1-1.466-.356 1.5 1.5 0 0 1-.469-1.266z" transform="translate(-158.535 -17.44)"/>
        <path id="Caminho_181" data-name="Caminho 181" class="cls-3" d="M316.722 29.423a7.994 7.994 0 0 1-.854 3.8 5.992 5.992 0 0 1-2.405 2.476 7.375 7.375 0 0 1-3.657.868 7.453 7.453 0 0 1-3.672-.868 6.08 6.08 0 0 1-2.434-2.462 7.865 7.865 0 0 1-.868-3.814 7.7 7.7 0 0 1 .882-3.786 6.172 6.172 0 0 1 2.448-2.462 7.392 7.392 0 0 1 3.643-.868 7.219 7.219 0 0 1 3.629.882 6.208 6.208 0 0 1 2.419 2.476 7.745 7.745 0 0 1 .868 3.757m-6.944-4.322a2.933 2.933 0 0 0-2.434 1.139 5.035 5.035 0 0 0-.9 3.188 5.136 5.136 0 0 0 .882 3.231 2.967 2.967 0 0 0 2.477 1.124 2.923 2.923 0 0 0 2.448-1.139 5.148 5.148 0 0 0 .882-3.216 5.111 5.111 0 0 0-.882-3.174 2.94 2.94 0 0 0-2.476-1.153" transform="translate(-236.755 -17.44)"/>
        <path id="Caminho_182" data-name="Caminho 182" class="cls-3" d="m374.056 31.216-.142-2.448 7.628-1.139a3.04 3.04 0 0 0-.826-1.878 2.81 2.81 0 0 0-2.163-.8 3.213 3.213 0 0 0-2.419 1.01 4.107 4.107 0 0 0-1 2.889l.085 1.48a3.811 3.811 0 0 0 1.409 2.676 4.77 4.77 0 0 0 2.918.854 6.721 6.721 0 0 0 2.22-.356 6.469 6.469 0 0 0 1.622-.783 2.065 2.065 0 0 1 .641.641 1.548 1.548 0 0 1 .242.839 1.577 1.577 0 0 1-.655 1.267 4.614 4.614 0 0 1-1.765.811 10.249 10.249 0 0 1-2.533.285 8.89 8.89 0 0 1-3.885-.811 6.023 6.023 0 0 1-2.647-2.434 7.862 7.862 0 0 1-.953-4.042 7.928 7.928 0 0 1 .541-3.045 6.009 6.009 0 0 1 3.615-3.487 7.5 7.5 0 0 1 2.562-.441 6.866 6.866 0 0 1 3.288.754 5.682 5.682 0 0 1 2.22 2.092 5.811 5.811 0 0 1 .811 3.074 1.542 1.542 0 0 1-.413 1.181 1.975 1.975 0 0 1-1.153.47z" transform="translate(-290.702 -17.44)"/>
        <path id="Caminho_183" data-name="Caminho 183" class="cls-3" d="M445.736 15.769V6.832h3.5v9.308a1.86 1.86 0 0 1-.27 1.039 2.731 2.731 0 0 1-.868.783 7.073 7.073 0 0 1-1.865.811 10.454 10.454 0 0 1-6.6-.4 5.54 5.54 0 0 1-2.576-2.334 7.916 7.916 0 0 1-.911-4 8.025 8.025 0 0 1 .925-4.07 5.709 5.709 0 0 1 2.491-2.348 7.9 7.9 0 0 1 3.473-.754 6.78 6.78 0 0 1 1.921.256 5.651 5.651 0 0 1 1.409.6v2.988a4.026 4.026 0 0 0-1.2-.74 4.357 4.357 0 0 0-1.708-.313 4.092 4.092 0 0 0-1.907.441 3.057 3.057 0 0 0-1.338 1.423 5.774 5.774 0 0 0-.484 2.547 4.437 4.437 0 0 0 1.025 3.245 3.73 3.73 0 0 0 2.761 1.025 4.38 4.38 0 0 0 1.309-.171 4.083 4.083 0 0 0 .911-.4m3.5-8.226-3.5.029V.229q.2-.057.64-.142A4.854 4.854 0 0 1 447.3 0a2.425 2.425 0 0 1 1.48.356 1.523 1.523 0 0 1 .456 1.267z" transform="translate(-340.978 -.001)"/>
        <path id="Caminho_184" data-name="Caminho 184" class="cls-3" d="M510.186 22.307a7.491 7.491 0 0 1 4.44 1.181 4.257 4.257 0 0 1 1.651 3.715v6.547a1.655 1.655 0 0 1-.327 1.082 3.3 3.3 0 0 1-.84.712 7.855 7.855 0 0 1-2.021.754 11.669 11.669 0 0 1-2.761.3 7.9 7.9 0 0 1-4.469-1.1 3.674 3.674 0 0 1-1.622-3.259 3.586 3.586 0 0 1 1.21-2.917 6.376 6.376 0 0 1 3.515-1.238l3.871-.4v-.512a1.827 1.827 0 0 0-.783-1.651 4.015 4.015 0 0 0-2.206-.512 8.259 8.259 0 0 0-2.163.285 10.84 10.84 0 0 0-1.878.683 2.145 2.145 0 0 1-.513-.626 1.638 1.638 0 0 1-.228-.825 1.6 1.6 0 0 1 1.139-1.509 7.091 7.091 0 0 1 1.864-.541 13.4 13.4 0 0 1 2.12-.171m.142 11.613a6.361 6.361 0 0 0 1.537-.171 3.554 3.554 0 0 0 1-.37v-3.243l-2.818.285a3.683 3.683 0 0 0-1.779.5 1.367 1.367 0 0 0-.612 1.21 1.543 1.543 0 0 0 .655 1.309 3.408 3.408 0 0 0 2.021.484" transform="translate(-394.214 -17.44)"/>
        <path id="Caminho_185" data-name="Caminho 185" class="cls-3" d="M579.114 32.252a3.694 3.694 0 0 1-1.48 3.117 7.013 7.013 0 0 1-4.3 1.125 8.787 8.787 0 0 1-3.729-.683q-1.451-.683-1.452-1.822a1.824 1.824 0 0 1 .228-.9 1.694 1.694 0 0 1 .6-.64 9.85 9.85 0 0 0 1.85.911 6.712 6.712 0 0 0 2.391.4q2.419 0 2.419-1.48a1.3 1.3 0 0 0-.427-1.01 2.717 2.717 0 0 0-1.309-.555l-1.623-.427a6.373 6.373 0 0 1-3.088-1.423 3.418 3.418 0 0 1-1.01-2.59 3.576 3.576 0 0 1 1.48-2.946 6.519 6.519 0 0 1 4.1-1.153 10.118 10.118 0 0 1 2.447.271 4.206 4.206 0 0 1 1.694.783 1.551 1.551 0 0 1 .612 1.224 1.755 1.755 0 0 1-.214.868 1.5 1.5 0 0 1-.555.583 8.053 8.053 0 0 0-.925-.441 7.575 7.575 0 0 0-1.323-.4 7.158 7.158 0 0 0-1.48-.156 3.624 3.624 0 0 0-1.75.356 1.108 1.108 0 0 0-.641 1.01 1.082 1.082 0 0 0 .37.826 2.759 2.759 0 0 0 1.252.541l1.452.342a7.024 7.024 0 0 1 3.359 1.58 3.615 3.615 0 0 1 1.053 2.69" transform="translate(-444.186 -17.337)"/>
        <path id="Caminho_186" data-name="Caminho 186" class="cls-3" d="M621.768 70.126a2.2 2.2 0 0 1 .569-1.537 2.27 2.27 0 0 1 3.131 0 2.36 2.36 0 0 1 0 3.074 2.27 2.27 0 0 1-3.131 0 2.2 2.2 0 0 1-.569-1.537" transform="translate(-486.1 -53.134)"/>
        <path id="Caminho_187" data-name="Caminho 187" class="cls-3" d="M650.108 25.125a3.961 3.961 0 0 0-2.86 1.11 4.3 4.3 0 0 0-1.153 3.245 4.255 4.255 0 0 0 1.11 3.188 3.945 3.945 0 0 0 2.875 1.082 5.118 5.118 0 0 0 1.779-.27 8.3 8.3 0 0 0 1.267-.583 2.1 2.1 0 0 1 .669.612 1.512 1.512 0 0 1 .242.868 1.805 1.805 0 0 1-1.167 1.58 6.632 6.632 0 0 1-3.074.612 8.718 8.718 0 0 1-3.8-.782 5.792 5.792 0 0 1-2.562-2.377 7.712 7.712 0 0 1-.925-3.928 7.532 7.532 0 0 1 .982-4.013 6.139 6.139 0 0 1 2.619-2.377 8.237 8.237 0 0 1 3.6-.783 6.032 6.032 0 0 1 3.017.655 1.892 1.892 0 0 1 1.139 1.622 1.493 1.493 0 0 1-.228.8 2.06 2.06 0 0 1-.541.6 7.312 7.312 0 0 0-1.281-.6 5.062 5.062 0 0 0-1.708-.256" transform="translate(-502.314 -17.44)"/>
        <path id="Caminho_188" data-name="Caminho 188" class="cls-3" d="M712.491 29.423a7.993 7.993 0 0 1-.854 3.8 5.992 5.992 0 0 1-2.405 2.476 7.374 7.374 0 0 1-3.657.868 7.453 7.453 0 0 1-3.675-.867 6.08 6.08 0 0 1-2.434-2.462 7.866 7.866 0 0 1-.868-3.814 7.7 7.7 0 0 1 .882-3.786 6.172 6.172 0 0 1 2.448-2.462 7.392 7.392 0 0 1 3.643-.868 7.22 7.22 0 0 1 3.629.882 6.209 6.209 0 0 1 2.419 2.476 7.745 7.745 0 0 1 .868 3.757m-6.941-4.323a2.933 2.933 0 0 0-2.433 1.139 5.034 5.034 0 0 0-.9 3.188 5.136 5.136 0 0 0 .882 3.231 2.967 2.967 0 0 0 2.477 1.124 2.924 2.924 0 0 0 2.448-1.139 5.148 5.148 0 0 0 .882-3.216 5.11 5.11 0 0 0-.882-3.174 2.941 2.941 0 0 0-2.476-1.153" transform="translate(-546.168 -17.44)"/>
        <path id="Caminho_189" data-name="Caminho 189" class="cls-3" d="M782.491 26.862v3.245h-3.5V27.26a1.955 1.955 0 0 0-.669-1.636 2.654 2.654 0 0 0-1.693-.527 4.081 4.081 0 0 0-1.352.213 4.618 4.618 0 0 0-1.039.5v4.3h-3.5v-4.529a2.04 2.04 0 0 1 .284-1.124 2.821 2.821 0 0 1 .854-.811 7.581 7.581 0 0 1 2.178-.968 9.752 9.752 0 0 1 2.69-.37 7.409 7.409 0 0 1 2.562.427 4.655 4.655 0 0 1 1.907 1.252c.132.114.256.228.37.341a1.534 1.534 0 0 1 .285.4 4.968 4.968 0 0 1 .441.982 3.624 3.624 0 0 1 .185 1.153m-11.758 1.877h3.5v7.372a3.745 3.745 0 0 1-.655.157 5.771 5.771 0 0 1-.939.071 2.377 2.377 0 0 1-1.437-.356 1.5 1.5 0 0 1-.47-1.266zm8.254 0h3.5v7.372a3.731 3.731 0 0 1-.669.157 5.842 5.842 0 0 1-.925.071 2.365 2.365 0 0 1-1.451-.356 1.52 1.52 0 0 1-.456-1.266zm11.727-1.594v2.96h-3.5V27.26a2.021 2.021 0 0 0-.626-1.636 2.526 2.526 0 0 0-1.679-.527 3.738 3.738 0 0 0-1.494.313 3.939 3.939 0 0 0-1.238.825l-1.767-2.135a8.627 8.627 0 0 1 2.078-1.266 7.024 7.024 0 0 1 2.846-.527 7.378 7.378 0 0 1 2.732.484 4.041 4.041 0 0 1 1.936 1.565 4.992 4.992 0 0 1 .711 2.789m-3.5 1.594h3.5v7.372a2.985 2.985 0 0 1-.64.157 5.846 5.846 0 0 1-.925.071 2.435 2.435 0 0 1-1.466-.356 1.5 1.5 0 0 1-.469-1.266z" transform="translate(-602.563 -17.44)"/>
        <path id="Caminho_190" data-name="Caminho 190" class="cls-3" d="M868.048 70.126a2.2 2.2 0 0 1 .569-1.537 2.27 2.27 0 0 1 3.131 0 2.359 2.359 0 0 1 0 3.074 2.27 2.27 0 0 1-3.131 0 2.2 2.2 0 0 1-.569-1.537" transform="translate(-678.642 -53.134)"/>
        <path id="Caminho_191" data-name="Caminho 191" class="cls-3" d="M896.985 7.486h-3.5V.228q.228-.057.655-.142a4.794 4.794 0 0 1 .938-.086 2.367 2.367 0 0 1 1.452.356 1.524 1.524 0 0 1 .455 1.267zm3.188-2.619a6.871 6.871 0 0 1 3.287.783 5.633 5.633 0 0 1 2.32 2.362 8.216 8.216 0 0 1 .854 3.942 8.039 8.039 0 0 1-.9 3.985 5.743 5.743 0 0 1-2.5 2.391 8.332 8.332 0 0 1-3.743.8 9.379 9.379 0 0 1-2.832-.384 9.065 9.065 0 0 1-2.035-.9 3.117 3.117 0 0 1-.868-.868 2.06 2.06 0 0 1-.27-1.1V6.689h3.5v8.966a4.037 4.037 0 0 0 1.01.47 4.629 4.629 0 0 0 1.466.213 3.348 3.348 0 0 0 2.6-1.082 4.784 4.784 0 0 0 .982-3.3 4.656 4.656 0 0 0-.968-3.273 3.325 3.325 0 0 0-2.533-1.025 4.028 4.028 0 0 0-1.765.37 5.572 5.572 0 0 0-1.309.854l-.228-2.846a10.621 10.621 0 0 1 1.637-.783 6.266 6.266 0 0 1 2.291-.384" transform="translate(-698.528)"/>
        <path id="Caminho_192" data-name="Caminho 192" class="cls-3" d="M965.728 25.922v3.9h-3.5v-4.185a2.087 2.087 0 0 1 .341-1.21 3.631 3.631 0 0 1 .968-.925 8.269 8.269 0 0 1 2.163-.854 11.124 11.124 0 0 1 2.818-.342q2.675 0 2.676 1.651a2.206 2.206 0 0 1-.114.726 2.58 2.58 0 0 1-.284.583q-.285-.057-.712-.1t-.911-.043a8.274 8.274 0 0 0-1.922.214 5.491 5.491 0 0 0-1.523.583m-3.5 2.732 3.5.171v7.287a3.727 3.727 0 0 1-.655.157 5.792 5.792 0 0 1-.939.071 2.377 2.377 0 0 1-1.437-.356 1.5 1.5 0 0 1-.469-1.267z" transform="translate(-752.271 -17.44)"/>
        <path id="Caminho_193" data-name="Caminho 193" class="cls-3" d="M108.289.041V23.67a11.814 11.814 0 1 0 0-23.629" transform="translate(-84.661 -.032)"/>
        <path id="Caminho_194" data-name="Caminho 194" class="cls-3" d="M11.814 11.855A11.814 11.814 0 0 1 23.629.041H11.814a11.814 11.814 0 1 0 0 23.629h11.815a11.814 11.814 0 0 1-11.815-11.815" transform="translate(0 -.032)"/>
    </g>
</svg>
