<svg xmlns="http://www.w3.org/2000/svg" width="175.756" height="37" viewBox="0 0 175.756 37">
    <defs>
        <clipPath id="91i8tefxfa">
            <path data-name="Retângulo 48" style="fill:none" d="M0 0h175.756v37H0z"/>
        </clipPath>
    </defs>
    <g data-name="Grupo 31" style="clip-path:url(#91i8tefxfa)">
        <path data-name="Caminho 150" d="M97.195 0v37a18.5 18.5 0 1 0 0-37" transform="translate(-60.2)" style="fill:#1251ff"/>
        <path data-name="Caminho 151" d="M18.5 18.5A18.5 18.5 0 0 1 36.994 0H18.5a18.5 18.5 0 1 0 0 37H37a18.5 18.5 0 0 1-18.5-18.5" transform="translate(.001 -.001)" style="fill:#1251ff"/>
        <path data-name="Caminho 152" d="M170.911 91.479a1.37 1.37 0 0 1 .354-.957 1.413 1.413 0 0 1 1.949 0 1.469 1.469 0 0 1 0 1.914 1.413 1.413 0 0 1-1.949 0 1.369 1.369 0 0 1-.354-.957" transform="translate(-105.858 -55.825)" style="fill:#1251ff"/>
        <path data-name="Caminho 153" d="M183.044 75.593a2.467 2.467 0 0 0-1.781.691 2.677 2.677 0 0 0-.718 2.02 2.65 2.65 0 0 0 .691 1.985 2.455 2.455 0 0 0 1.79.673 3.19 3.19 0 0 0 1.107-.168 5.2 5.2 0 0 0 .789-.364 1.307 1.307 0 0 1 .416.381.938.938 0 0 1 .151.541 1.124 1.124 0 0 1-.727.984 4.127 4.127 0 0 1-1.913.381 5.427 5.427 0 0 1-2.366-.487 3.6 3.6 0 0 1-1.594-1.479 4.8 4.8 0 0 1-.576-2.445 4.69 4.69 0 0 1 .611-2.5 3.822 3.822 0 0 1 1.63-1.479 5.126 5.126 0 0 1 2.242-.488 3.759 3.759 0 0 1 1.878.408 1.177 1.177 0 0 1 .709 1.01.927.927 0 0 1-.142.5 1.28 1.28 0 0 1-.336.372 4.546 4.546 0 0 0-.8-.372 3.142 3.142 0 0 0-1.063-.159" transform="translate(-110.442 -45.734)" style="fill:#1251ff"/>
        <path data-name="Caminho 154" d="M206.976 78.269a4.973 4.973 0 0 1-.531 2.365 3.727 3.727 0 0 1-1.5 1.542 4.585 4.585 0 0 1-2.277.54 4.635 4.635 0 0 1-2.286-.54 3.78 3.78 0 0 1-1.515-1.532 4.89 4.89 0 0 1-.541-2.374 4.794 4.794 0 0 1 .549-2.356 3.842 3.842 0 0 1 1.525-1.534 4.6 4.6 0 0 1 2.268-.54 4.5 4.5 0 0 1 2.259.549 3.868 3.868 0 0 1 1.506 1.542 4.821 4.821 0 0 1 .54 2.339m-4.323-2.693a1.826 1.826 0 0 0-1.515.709 3.136 3.136 0 0 0-.558 1.985 3.194 3.194 0 0 0 .549 2.011 1.846 1.846 0 0 0 1.542.7 1.819 1.819 0 0 0 1.524-.709 3.875 3.875 0 0 0 0-3.978 1.83 1.83 0 0 0-1.542-.718" transform="translate(-122.84 -45.734)" style="fill:#1251ff"/>
        <path data-name="Caminho 155" d="M231.39 76.674v2.02h-2.18v-1.772a1.217 1.217 0 0 0-.416-1.019 1.653 1.653 0 0 0-1.054-.328 2.547 2.547 0 0 0-.842.133 2.883 2.883 0 0 0-.647.31v2.676h-2.179v-2.817a1.266 1.266 0 0 1 .177-.7 1.754 1.754 0 0 1 .531-.505 4.726 4.726 0 0 1 1.356-.6 6.068 6.068 0 0 1 1.674-.231 4.606 4.606 0 0 1 1.594.266 2.9 2.9 0 0 1 1.187.78q.124.106.23.212a.963.963 0 0 1 .177.248 3.1 3.1 0 0 1 .274.611 2.263 2.263 0 0 1 .115.718m-7.318 1.169h2.179v4.589a2.323 2.323 0 0 1-.408.1 3.59 3.59 0 0 1-.585.044 1.479 1.479 0 0 1-.895-.222.931.931 0 0 1-.292-.788zm5.138 0h2.179v4.589a2.334 2.334 0 0 1-.416.1 3.646 3.646 0 0 1-.576.044 1.471 1.471 0 0 1-.9-.222.946.946 0 0 1-.284-.788zm7.3-.992v1.843h-2.18v-1.774a1.258 1.258 0 0 0-.39-1.019 1.573 1.573 0 0 0-1.046-.328 2.328 2.328 0 0 0-.93.195 2.455 2.455 0 0 0-.771.514l-1.1-1.329a5.344 5.344 0 0 1 1.293-.788 4.373 4.373 0 0 1 1.772-.328 4.585 4.585 0 0 1 1.7.3 2.515 2.515 0 0 1 1.205.974 3.1 3.1 0 0 1 .443 1.736m-2.18.992h2.18v4.589a1.865 1.865 0 0 1-.4.1 3.637 3.637 0 0 1-.575.044 1.515 1.515 0 0 1-.913-.222.931.931 0 0 1-.292-.788z" transform="translate(-138.784 -45.734)" style="fill:#1251ff"/>
        <path data-name="Caminho 156" d="M258.8 91.479a1.37 1.37 0 0 1 .354-.957 1.413 1.413 0 0 1 1.949 0 1.468 1.468 0 0 1 0 1.914 1.413 1.413 0 0 1-1.949 0 1.369 1.369 0 0 1-.354-.957" transform="translate(-160.293 -55.825)" style="fill:#1251ff"/>
        <path data-name="Caminho 157" d="M270.055 70.539h-2.179v-4.518q.142-.035.408-.088a2.957 2.957 0 0 1 .585-.053 1.473 1.473 0 0 1 .9.222.947.947 0 0 1 .284.789zm1.984-1.63a4.274 4.274 0 0 1 2.046.488 3.5 3.5 0 0 1 1.444 1.47 5.115 5.115 0 0 1 .532 2.454 5.006 5.006 0 0 1-.561 2.479 3.579 3.579 0 0 1-1.559 1.489 5.191 5.191 0 0 1-2.33.5 5.842 5.842 0 0 1-1.763-.239 5.651 5.651 0 0 1-1.267-.558 1.949 1.949 0 0 1-.54-.54 1.287 1.287 0 0 1-.168-.682v-5.727h2.179v5.582a2.526 2.526 0 0 0 .629.292 2.882 2.882 0 0 0 .913.133 2.084 2.084 0 0 0 1.621-.673 2.979 2.979 0 0 0 .611-2.055 2.9 2.9 0 0 0-.6-2.038 2.07 2.07 0 0 0-1.577-.638 2.507 2.507 0 0 0-1.1.23 3.484 3.484 0 0 0-.815.532l-.142-1.772a6.652 6.652 0 0 1 1.019-.487 3.9 3.9 0 0 1 1.427-.239" transform="translate(-165.915 -40.804)" style="fill:#1251ff"/>
        <path data-name="Caminho 158" d="M294.586 76.089v2.428h-2.179v-2.6a1.3 1.3 0 0 1 .213-.753 2.255 2.255 0 0 1 .6-.576 5.149 5.149 0 0 1 1.346-.531 6.92 6.92 0 0 1 1.754-.213q1.665 0 1.666 1.028a1.378 1.378 0 0 1-.071.452 1.608 1.608 0 0 1-.177.363q-.178-.035-.443-.062a5.659 5.659 0 0 0-.567-.027 5.149 5.149 0 0 0-1.2.133 3.42 3.42 0 0 0-.948.363m-2.179 1.7 2.179.106v4.536a2.354 2.354 0 0 1-.408.1 3.547 3.547 0 0 1-.585.045 1.481 1.481 0 0 1-.895-.222.932.932 0 0 1-.292-.789z" transform="translate(-181.109 -45.734)" style="fill:#1251ff"/>
        <path data-name="Caminho 159" d="M185.262 21.3v3.961h-4.274v-3.47a2.388 2.388 0 0 0-.816-2 3.243 3.243 0 0 0-2.068-.643 4.976 4.976 0 0 0-1.65.261 5.655 5.655 0 0 0-1.268.608v5.247h-4.274v-5.523a2.487 2.487 0 0 1 .347-1.373 3.436 3.436 0 0 1 1.043-.99 9.237 9.237 0 0 1 2.658-1.178 11.907 11.907 0 0 1 3.284-.452 9.039 9.039 0 0 1 3.127.521A5.691 5.691 0 0 1 183.7 17.8q.243.208.452.417a1.856 1.856 0 0 1 .347.486 6.048 6.048 0 0 1 .539 1.2 4.427 4.427 0 0 1 .226 1.407m-14.352 2.29h4.274v9a4.538 4.538 0 0 1-.8.191 7 7 0 0 1-1.146.087 2.9 2.9 0 0 1-1.755-.434 1.827 1.827 0 0 1-.573-1.546zm10.076 0h4.274v9a4.548 4.548 0 0 1-.816.191 7.1 7.1 0 0 1-1.13.087 2.888 2.888 0 0 1-1.772-.434 1.857 1.857 0 0 1-.556-1.546zm14.312-1.948v3.614h-4.27v-3.475a2.467 2.467 0 0 0-.764-2 3.086 3.086 0 0 0-2.05-.643 4.563 4.563 0 0 0-1.824.383 4.794 4.794 0 0 0-1.511 1.008l-2.154-2.606a10.5 10.5 0 0 1 2.536-1.546 8.574 8.574 0 0 1 3.475-.643 9.008 9.008 0 0 1 3.335.591 4.932 4.932 0 0 1 2.363 1.911 6.089 6.089 0 0 1 .869 3.405M191.03 23.6h4.27v9a3.641 3.641 0 0 1-.782.191 7.094 7.094 0 0 1-1.129.087 2.971 2.971 0 0 1-1.79-.434 1.827 1.827 0 0 1-.573-1.546z" transform="translate(-105.858 -9.752)" style="fill:#1251ff"/>
        <path data-name="Caminho 160" d="M257.886 24.432a9.754 9.754 0 0 1-1.042 4.639 7.313 7.313 0 0 1-2.936 3.023 9 9 0 0 1-4.465 1.06 9.1 9.1 0 0 1-4.482-1.06 7.416 7.416 0 0 1-2.971-3.005 9.6 9.6 0 0 1-1.06-4.656 9.4 9.4 0 0 1 1.077-4.622A7.54 7.54 0 0 1 245 16.8a9.027 9.027 0 0 1 4.448-1.06 8.813 8.813 0 0 1 4.431 1.077 7.575 7.575 0 0 1 2.953 3.023 9.449 9.449 0 0 1 1.06 4.587m-8.478-5.282a3.581 3.581 0 0 0-2.971 1.39 6.148 6.148 0 0 0-1.095 3.892 6.27 6.27 0 0 0 1.077 3.944 3.622 3.622 0 0 0 3.023 1.372 3.569 3.569 0 0 0 2.988-1.39 6.286 6.286 0 0 0 1.077-3.927 6.235 6.235 0 0 0-1.077-3.874 3.588 3.588 0 0 0-3.023-1.408" transform="translate(-149.225 -9.752)" style="fill:#1251ff"/>
        <path data-name="Caminho 161" d="m291.93 26.622-.174-2.988 9.312-1.39a3.712 3.712 0 0 0-1.008-2.293 3.43 3.43 0 0 0-2.641-.973 3.921 3.921 0 0 0-2.953 1.234 5.012 5.012 0 0 0-1.216 3.527l.1 1.807a4.655 4.655 0 0 0 1.72 3.266 5.822 5.822 0 0 0 3.562 1.043 8.2 8.2 0 0 0 2.71-.435 7.887 7.887 0 0 0 1.981-.955 2.524 2.524 0 0 1 .782.782 1.893 1.893 0 0 1 .3 1.025 1.926 1.926 0 0 1-.8 1.546 5.635 5.635 0 0 1-2.154.99 12.5 12.5 0 0 1-3.093.348 10.853 10.853 0 0 1-4.743-.99 7.354 7.354 0 0 1-3.231-2.971 9.593 9.593 0 0 1-1.164-4.934 9.689 9.689 0 0 1 .66-3.718 7.337 7.337 0 0 1 4.413-4.256 9.14 9.14 0 0 1 3.127-.539 8.385 8.385 0 0 1 4.013.92 6.941 6.941 0 0 1 2.71 2.554 7.1 7.1 0 0 1 .99 3.753 1.882 1.882 0 0 1-.5 1.442 2.413 2.413 0 0 1-1.408.573z" transform="translate(-179.135 -9.753)" style="fill:#1251ff"/>
        <path data-name="Caminho 162" d="M345.935 19.384V8.474h4.274v11.362a2.27 2.27 0 0 1-.331 1.269 3.338 3.338 0 0 1-1.06.955 8.639 8.639 0 0 1-2.276.99 12.757 12.757 0 0 1-8.061-.486 6.762 6.762 0 0 1-3.145-2.849 9.666 9.666 0 0 1-1.112-4.882 9.8 9.8 0 0 1 1.129-4.969A6.966 6.966 0 0 1 338.395 7a9.64 9.64 0 0 1 4.239-.921 8.281 8.281 0 0 1 2.345.312 6.911 6.911 0 0 1 1.72.73v3.649a4.914 4.914 0 0 0-1.459-.9 5.313 5.313 0 0 0-2.085-.383 5 5 0 0 0-2.328.539 3.733 3.733 0 0 0-1.633 1.737 7.055 7.055 0 0 0-.591 3.11 5.418 5.418 0 0 0 1.251 3.961 4.556 4.556 0 0 0 3.371 1.251 5.342 5.342 0 0 0 1.6-.209 4.984 4.984 0 0 0 1.112-.486m4.274-10.042-4.274.035V.413q.243-.069.782-.174a5.916 5.916 0 0 1 1.129-.1 2.961 2.961 0 0 1 1.807.434 1.86 1.86 0 0 1 .556 1.546z" transform="translate(-207.01 -.084)" style="fill:#1251ff"/>
        <path data-name="Caminho 163" d="M389.138 15.745a9.146 9.146 0 0 1 5.421 1.442 5.2 5.2 0 0 1 2.016 4.535v7.992a2.02 2.02 0 0 1-.4 1.32 4.019 4.019 0 0 1-1.025.869 9.568 9.568 0 0 1-2.467.921 14.248 14.248 0 0 1-3.37.365 9.65 9.65 0 0 1-5.456-1.338 4.486 4.486 0 0 1-1.98-3.978 4.377 4.377 0 0 1 1.477-3.562 7.781 7.781 0 0 1 4.291-1.511l4.726-.486v-.626a2.231 2.231 0 0 0-.955-2.015 4.9 4.9 0 0 0-2.693-.625 10.1 10.1 0 0 0-2.641.347 13.21 13.21 0 0 0-2.293.834 2.634 2.634 0 0 1-.625-.765 2 2 0 0 1-.278-1.008 1.949 1.949 0 0 1 1.39-1.842 8.653 8.653 0 0 1 2.276-.66 16.375 16.375 0 0 1 2.589-.209m.174 14.177a7.75 7.75 0 0 0 1.876-.209 4.342 4.342 0 0 0 1.217-.452V25.3l-3.44.348a4.491 4.491 0 0 0-2.172.608 1.668 1.668 0 0 0-.747 1.477 1.882 1.882 0 0 0 .8 1.6 4.16 4.16 0 0 0 2.467.591" transform="translate(-236.524 -9.752)" style="fill:#1251ff"/>
        <path data-name="Caminho 164" d="M439.986 27.954a4.51 4.51 0 0 1-1.807 3.8 8.562 8.562 0 0 1-5.247 1.373 10.725 10.725 0 0 1-4.552-.834q-1.772-.834-1.772-2.224a2.224 2.224 0 0 1 .278-1.095 2.068 2.068 0 0 1 .73-.782 12.061 12.061 0 0 0 2.259 1.112 8.194 8.194 0 0 0 2.919.486q2.953 0 2.954-1.807a1.581 1.581 0 0 0-.521-1.234 3.313 3.313 0 0 0-1.6-.678l-1.981-.521a7.777 7.777 0 0 1-3.77-1.738 4.173 4.173 0 0 1-1.234-3.162 4.365 4.365 0 0 1 1.807-3.6 7.956 7.956 0 0 1 5-1.407 12.356 12.356 0 0 1 2.988.33 5.135 5.135 0 0 1 2.068.955 1.892 1.892 0 0 1 .747 1.494 2.142 2.142 0 0 1-.261 1.06 1.824 1.824 0 0 1-.678.712 9.769 9.769 0 0 0-1.129-.539 9.282 9.282 0 0 0-1.616-.486 8.755 8.755 0 0 0-1.807-.191 4.424 4.424 0 0 0-2.137.434 1.353 1.353 0 0 0-.782 1.234 1.32 1.32 0 0 0 .452 1.008 3.366 3.366 0 0 0 1.529.66l1.772.417a8.571 8.571 0 0 1 4.1 1.928 4.413 4.413 0 0 1 1.286 3.284" transform="translate(-264.229 -9.696)" style="fill:#1251ff"/>
    </g>
</svg>
